<?xml version="1.0" encoding="UTF-8" standalone="no"?>
<!-- Created with Inkscape (http://www.inkscape.org/) -->

<svg
   xmlns:dc="http://purl.org/dc/elements/1.1/"
   xmlns:cc="http://creativecommons.org/ns#"
   xmlns:rdf="http://www.w3.org/1999/02/22-rdf-syntax-ns#"
   xmlns:svg="http://www.w3.org/2000/svg"
   xmlns="http://www.w3.org/2000/svg"
   xmlns:sodipodi="http://sodipodi.sourceforge.net/DTD/sodipodi-0.dtd"
   xmlns:inkscape="http://www.inkscape.org/namespaces/inkscape"
   width="744.09448819"
   height="1052.3622047"
   id="svg2"
   version="1.1"
   inkscape:version="0.48.4 r9939"
   sodipodi:docname="umpapo.svg">
  <defs
     id="defs4">
    <inkscape:perspective
       sodipodi:type="inkscape:persp3d"
       inkscape:vp_x="0 : 526.18109 : 1"
       inkscape:vp_y="0 : 1000 : 0"
       inkscape:vp_z="744.09448 : 526.18109 : 1"
       inkscape:persp3d-origin="372.04724 : 350.78739 : 1"
       id="perspective3028" />
  </defs>
  <sodipodi:namedview
     id="base"
     pagecolor="#ffffff"
     bordercolor="#666666"
     borderopacity="1.0"
     inkscape:pageopacity="0.0"
     inkscape:pageshadow="2"
     inkscape:zoom="0.35"
     inkscape:cx="4148.5114"
     inkscape:cy="3242.5817"
     inkscape:document-units="px"
     inkscape:current-layer="text2985-1-8"
     showgrid="false"
     inkscape:window-width="1304"
     inkscape:window-height="745"
     inkscape:window-x="54"
     inkscape:window-y="-8"
     inkscape:window-maximized="1" />
  <metadata
     id="metadata7">
    <rdf:RDF>
      <cc:Work
         rdf:about="">
        <dc:format>image/svg+xml</dc:format>
        <dc:type
           rdf:resource="http://purl.org/dc/dcmitype/StillImage" />
        <dc:title />
      </cc:Work>
    </rdf:RDF>
  </metadata>
  <g
     inkscape:label="Layer 1"
     inkscape:groupmode="layer"
     id="layer1">
    <text
       xml:space="preserve"
       style="font-size:229.28590393px;font-style:normal;font-weight:normal;line-height:125%;letter-spacing:0px;word-spacing:0px;fill:#000000;fill-opacity:1;stroke:none;font-family:Sans"
       x="147.61191"
       y="-930.97076"
       id="text2985"
       sodipodi:linespacing="125%"
       inkscape:export-filename="C:\Users\Desenvolv 7\Desktop\text3070-1.png"
       inkscape:export-xdpi="25.690001"
       inkscape:export-ydpi="25.690001"><tspan
         sodipodi:role="line"
         id="tspan2987"
         x="147.61191"
         y="-930.97076"
         style="font-style:normal;font-variant:normal;font-weight:bold;font-stretch:normal;font-family:Segoe UI;-inkscape-font-specification:Segoe UI Bold"><tspan
   style="font-style:normal;font-variant:normal;font-weight:bold;font-stretch:normal;fill:#2c5aa0;font-family:Segoe UI;-inkscape-font-specification:Segoe UI Bold"
   id="tspan2989">um</tspan>papo!</tspan></text>
    <text
       xml:space="preserve"
       style="font-size:229.28590393px;font-style:normal;font-weight:normal;line-height:125%;letter-spacing:0px;word-spacing:0px;fill:#000000;fill-opacity:1;stroke:none;font-family:Sans"
       x="427.70663"
       y="-1499.0565"
       id="text2985-1"
       sodipodi:linespacing="125%"
       inkscape:export-filename="C:\Users\Desenvolv 7\Desktop\text3070-1.png"
       inkscape:export-xdpi="25.690001"
       inkscape:export-ydpi="25.690001"><tspan
         sodipodi:role="line"
         id="tspan2987-7"
         x="427.70663"
         y="-1499.0565"
         style="font-style:normal;font-variant:normal;font-weight:bold;font-stretch:normal;font-family:Segoe Print;-inkscape-font-specification:Segoe Print Bold"><tspan
   style="font-style:normal;font-variant:normal;font-weight:bold;font-stretch:normal;fill:#2c5aa0;font-family:Segoe Print;-inkscape-font-specification:Segoe Print Bold"
   id="tspan2989-4">um</tspan>papo!</tspan></text>
    <g
       transform="matrix(-0.99791262,-0.0645787,0.0645787,-0.99791262,4142.3015,-1114.0216)"
       style="font-size:229.28590393px;font-style:normal;font-weight:normal;line-height:125%;letter-spacing:0px;word-spacing:0px;fill:#000000;fill-opacity:1;stroke:none;font-family:Sans"
       id="text2985-1-8">
      <g
         id="g3095"
         transform="matrix(0.99976497,0.02167965,-0.02167965,0.99976497,-2.5691645,-49.031933)"
         inkscape:export-filename="C:\Users\Desenvolv 7\Desktop\text3070-1.png"
         inkscape:export-xdpi="25.690001"
         inkscape:export-ydpi="25.690001">
        <path
           inkscape:connector-curvature="0"
           id="path3102"
           style="fill:#2c5aa0;font-family:Segoe Print;-inkscape-font-specification:Segoe Print Bold"
           d="m 2678.8899,-194.78813 c -0.4296,-14.89164 1.4822,-28.04167 5.7354,-39.45014 4.2532,-11.40855 10.5642,-19.56783 18.933,-24.47786 4.9569,-2.90828 11.4917,-3.23767 19.6045,-0.98817 8.1128,2.24947 15.3419,8.78173 21.6872,19.59682 4.4946,7.66062 9.343,20.34907 14.5452,38.06539 4.1308,14.71026 8.1414,25.38075 12.0317,32.01151 0.5976,6.9182 -1.8395,11.98256 -7.3114,15.1931 -3.7338,2.19052 -7.4382,2.69814 -11.1133,1.52286 -3.6751,-1.17552 -6.2491,-3.01853 -7.7221,-5.52905 -2.6817,-4.57076 -4.887,-12.01691 -6.6161,-22.33846 -1.0791,-6.11668 -3.2315,-14.39436 -6.4571,-24.83305 -3.2256,-10.43883 -5.5938,-16.94572 -7.1046,-19.52068 -5.0233,-8.56196 -9.3053,-11.80425 -12.846,-9.72688 -5.6006,3.28591 -10.011,13.09918 -13.231,29.43982 -3.22,16.34051 -2.9736,30.99345 0.7391,43.95887 3.5618,12.70769 5.217,21.42851 4.9656,26.16248 -0.2513,4.73368 -2.437,8.30923 -6.557,10.72663 -6.695,3.92789 -12.2332,2.15814 -16.6145,-5.30924 -0.6421,-1.09453 -1.379,-3.60433 -2.211,-7.52942 -2.887,-13.62297 -8.5229,-27.58004 -16.9079,-41.87126 -9.82,-16.73767 -18.5257,-25.08616 -26.1171,-25.04551 -2.5088,8.7e-4 -4.2354,-0.80335 -5.1798,-2.41266 -1.3596,-2.31758 -1.0022,-5.46947 1.0722,-9.45567 2.0747,-3.98632 4.5925,-6.84815 7.5537,-8.5855 5.0858,-2.98385 11.1022,-1.68943 18.0494,3.88326 6.9473,5.57258 13.9713,14.41018 21.0719,26.51281 z" />
        <path
           inkscape:connector-curvature="0"
           id="path3104"
           style="fill:#2c5aa0;font-family:Segoe Print;-inkscape-font-specification:Segoe Print Bold"
           d="m 2571.3736,-201.29015 c -0.4029,-7.72915 3.1853,-12.2367 10.7646,-13.52267 9.6397,-1.63556 15.6394,4.5005 17.9991,18.4082 3.8205,22.51718 5.8712,41.96582 6.1521,58.34599 0.1968,12.7605 1.3127,25.13802 3.3478,37.13259 0.4869,2.869725 -0.024,5.435718 -1.5328,7.697987 -1.5088,2.262026 -3.9189,3.674016 -7.2302,4.235973 -11.0379,1.872647 -17.6929,-3.887257 -19.9653,-17.27973 -0.7366,-4.34166 -0.6656,-15.74715 0.213,-34.21651 0.557,-10.99592 0.4296,-18.88538 -0.3819,-23.6684 -13.2048,49.78247 -28.2696,76.109521 -45.1943,78.981236 -6.8434,1.160989 -12.8059,-0.628413 -17.8875,-5.368213 -5.0814,-4.740049 -9.2813,-16.442903 -12.5998,-35.108583 -2.9701,-17.05947 -5.3014,-25.44558 -6.9939,-25.15835 -1.3245,0.22467 -4.519,9.28337 -9.5836,27.17613 -5.6478,19.80846 -11.0813,33.18366 -16.3006,40.125636 -5.219,6.941713 -11.2504,10.993194 -18.094,12.154457 -8.1678,1.385708 -14.6876,-1.12295 -19.5594,-7.525982 -4.8715,-6.403304 -9.4602,-17.832004 -13.7662,-34.286131 -3.3509,-13.05824 -6.539,-22.81305 -9.5643,-29.26449 -3.0249,-6.45157 -7.0058,-10.39407 -11.9429,-11.8275 -3.9787,-1.14186 -6.2678,-3.47881 -6.8673,-7.01087 -0.5367,-3.16423 1.0205,-6.70264 4.6716,-10.61522 3.6515,-3.91267 7.6479,-6.2373 11.9892,-6.97388 7.506,-1.27353 14.0018,1.42846 19.4876,8.10596 5.4861,6.67741 10.8564,21.03951 16.1109,43.08634 2.6325,10.60607 4.7051,17.57878 6.2178,20.91814 1.513,3.33914 3.1892,4.85271 5.0287,4.54069 1.6191,-0.27479 3.5275,-3.305 5.7252,-9.09064 2.1981,-5.78585 5.757,-17.15858 10.6769,-34.11822 4.2992,-15.26465 8.3843,-26.10209 12.2552,-32.51233 3.8711,-6.41032 8.566,-10.08366 14.0848,-11.02002 4.2681,-0.72416 8.8666,0.38822 13.7955,3.33714 4.9291,2.94887 9.5315,15.90826 13.8072,38.8782 3.8514,20.46789 6.9176,30.50835 9.1987,30.12141 3.0907,-0.52448 8.9747,-10.91009 17.652,-31.15688 8.6774,-20.24693 14.7728,-38.08739 18.2861,-53.52146 z" />
        <path
           inkscape:connector-curvature="0"
           id="path3106"
           style="font-style:normal;font-variant:normal;font-weight:bold;font-stretch:normal;font-family:Segoe Print;-inkscape-font-specification:Segoe Print Bold"
           d="m 2347.4547,-168.64826 c 0.8382,-5.31073 1.4572,-13.29944 1.8569,-23.96614 l 1.7656,-44.2905 c 0.308,-7.21431 1.6325,-12.30274 3.9735,-15.26531 2.341,-2.96242 5.3713,-4.59593 9.0907,-4.90054 3.3475,-0.274 6.6296,0.71163 9.8463,2.95689 3.2168,2.24541 4.9501,4.89304 5.1998,7.9429 0.4933,6.02552 0.1329,13.05696 -1.0812,21.09435 -7.4599,45.16861 -9.7616,91.5998 -6.905,139.2937 l 0.1827,2.231653 c 0.8162,9.967941 1.0808,16.629941 0.7939,19.986018 -0.2869,3.355845 -1.6472,6.406536 -4.0809,9.152082 -2.4337,2.745296 -6.0681,4.315953 -10.9034,4.711974 -8.1083,0.66375 -12.671,-5.215737 -13.6882,-17.638477 -0.4141,-5.05852 -0.1878,-13.726506 0.6791,-26.003985 l 0.4855,-7.790565 c -7.323,14.828043 -16.4418,27.388086 -27.3565,37.680169 -10.9145,10.291851 -20.9839,15.815454 -30.2082,16.570826 -8.3314,0.682019 -15.6605,-1.713381 -21.9873,-7.186208 -6.3266,-5.473077 -9.8585,-12.710048 -10.5956,-21.710933 -1.9671,-24.027538 5.5609,-46.641964 22.5841,-67.843354 17.0234,-21.20145 34.6476,-32.54827 52.8727,-34.04047 8.6291,-0.70652 14.4542,2.29879 17.4755,9.01592 z m -58.0715,96.079487 c 9.0755,-0.743165 20.1226,-10.559221 33.1415,-29.448197 13.0191,-18.88913 19.1144,-33.39207 18.286,-43.50885 -0.2131,-2.60362 -1.6867,-4.8232 -4.4206,-6.65872 -2.7338,-1.83558 -5.8117,-2.61327 -9.2336,-2.33308 -9.4473,0.77349 -19.6819,9.08144 -30.7037,24.92387 -11.0218,15.84233 -15.9662,30.681642 -14.8335,44.517968 0.3778,4.611983 1.357,7.883 2.9378,9.813062 1.5809,1.929852 3.1896,2.827834 4.8261,2.693947 z" />
        <path
           inkscape:connector-curvature="0"
           id="path3108"
           style="font-style:normal;font-variant:normal;font-weight:bold;font-stretch:normal;font-family:Segoe Print;-inkscape-font-specification:Segoe Print Bold"
           d="m 2150.2463,-126.82715 c 18.554,-26.68032 36.9664,-40.3944 55.2372,-41.14228 6.7118,-0.27473 12.5997,2.13611 17.6638,7.23251 5.0641,5.09639 7.764,11.7462 8.0998,19.94946 0.8089,19.7623 -7.1293,41.17124 -23.8148,64.226891 -16.6854,23.055468 -33.9771,34.949554 -51.8751,35.682294 -9.098,0.372284 -15.2518,-3.969863 -18.4612,-13.026454 -8.576,0.35093 -12.9983,-2.754841 -13.2671,-9.31732 -0.1281,-3.132247 0.4603,-8.833511 1.765,-17.103809 2.3543,-15.484602 3.3436,-27.813212 2.9681,-36.985862 -0.3906,-9.54563 -1.3179,-16.23065 -2.7818,-20.05509 -1.4637,-3.8245 -2.5183,-6.32113 -3.1639,-7.48988 -0.6453,-1.1688 -2.487,-2.36331 -5.525,-3.58353 -3.0409,-1.29484 -4.6133,-3.21002 -4.7172,-5.74555 -0.1556,-3.80333 1.635,-7.05137 5.3717,-9.74411 3.7369,-2.69276 7.6934,-4.1246 11.8695,-4.29555 14.0202,-0.57388 20.8972,13.22554 20.631,41.39828 z m 9.253,61.808866 c 7.5321,-0.30841 16.9789,-9.042793 28.3405,-26.203175 11.3616,-17.160531 16.8043,-31.557601 16.3281,-43.191241 -0.2503,-6.11517 -1.6432,-9.12084 -4.1788,-9.01703 -8.7998,0.36018 -19.312,8.61527 -31.5368,24.76531 -12.2245,16.14994 -18.0972,30.07906 -17.6181,41.787397 0.1527,3.72865 1.1131,6.658657 2.881,8.790032 1.768,2.131174 3.6961,3.154076 5.7841,3.068707 z" />
        <path
           inkscape:connector-curvature="0"
           id="path3110"
           style="font-style:normal;font-variant:normal;font-weight:bold;font-stretch:normal;font-family:Segoe Print;-inkscape-font-specification:Segoe Print Bold"
           d="m 2065.1509,-154.21911 c 1.2372,-5.23221 2.458,-13.15132 3.6625,-23.75733 l 5.1068,-44.0305 c 0.8522,-7.17042 2.5574,-12.14423 5.1156,-14.92146 2.5582,-2.77707 5.7031,-4.17697 9.4349,-4.19969 3.3587,-0.0203 6.5569,1.2105 9.5948,3.69239 3.038,2.48204 4.5662,5.25306 4.5848,8.31306 0.037,6.04558 -0.854,13.02969 -2.6719,20.95237 -10.8513,44.47587 -16.6545,90.60043 -17.4096,138.373835 l 0.014,2.239079 c 0.061,10.001114 -0.1787,16.664066 -0.7184,19.988874 -0.5396,3.324578 -2.1265,6.263772 -4.7607,8.81759 -2.6341,2.553571 -6.3769,3.845134 -11.2283,3.874694 -8.1352,0.04923 -12.2407,-6.158192 -12.3164,-18.622276 -0.031,-5.07535 0.8499,-13.701455 2.642,-25.878342 l 1.0727,-7.731615 c -8.4224,14.232363 -18.4642,26.067529 -30.1253,35.505534 -11.6609,9.437783 -22.1188,14.184804 -31.3738,14.241076 -8.3591,0.05059 -15.4863,-2.891718 -21.3815,-8.826928 -5.8951,-5.935443 -8.87,-13.418577 -8.925,-22.449426 -0.1461,-24.107487 9.0691,-46.088495 27.6455,-65.943085 18.5766,-19.85465 37.0078,-29.83742 55.2935,-29.94836 8.6578,-0.0525 14.2393,3.38431 16.7443,10.31051 z m -65.1648,91.417254 c 9.1057,-0.05534 20.863,-9.008668 35.2718,-26.860007 14.409,-17.851487 21.5827,-31.852427 21.521,-42.002877 -0.016,-2.61229 -1.3174,-4.93685 -3.9048,-6.97369 -2.5874,-2.03689 -5.5977,-3.04491 -9.031,-3.02406 -9.4787,0.0575 -20.3117,7.56841 -32.4991,22.5328 -12.1871,14.9643 -18.2387,29.387612 -18.1546,43.269974 0.028,4.627339 0.7575,7.962993 2.188,10.006974 1.4306,2.043787 2.9669,3.060748 4.6087,3.050886 z" />
        <path
           inkscape:connector-curvature="0"
           id="path3112"
           style="font-style:normal;font-variant:normal;font-weight:bold;font-stretch:normal;font-family:Segoe Print;-inkscape-font-specification:Segoe Print Bold"
           d="m 1835.9792,-108.11783 c 5.4747,-17.32247 15.3698,-31.78049 29.6853,-43.37411 14.3157,-11.59363 28.4495,-17.20035 42.4015,-16.82016 11.0423,0.30091 20.0343,4.59652 26.9762,12.88685 6.942,8.29031 10.2523,18.32963 9.9311,30.11797 -0.5246,19.24924 -7.6066,38.021151 -21.2462,56.315805 -13.6396,18.294468 -29.8228,27.18659 -48.5499,26.676394 -12.7582,-0.347785 -22.963,-5.348429 -30.6145,-15.001947 -7.6514,-9.653726 -11.2992,-21.008874 -10.9435,-34.065478 0.1546,-5.670398 0.9403,-11.211524 2.357,-16.623414 z m 57.2318,36.950813 c 5.3488,-4.483564 10.6608,-11.730642 15.9361,-21.741255 5.2754,-10.010748 8.0524,-20.126848 8.3309,-30.348318 0.1688,-6.19263 -0.8298,-11.33439 -2.9956,-15.4253 -2.1658,-4.09095 -5.1139,-6.18724 -8.8444,-6.28888 -9.2516,-0.25212 -19.0256,4.96941 -29.3223,15.6646 -10.2964,10.69514 -15.6307,22.8695 -16.0029,36.523117 -0.2093,7.684717 1.2411,14.052098 4.3513,19.102164 3.1105,5.049889 7.5754,7.65417 13.3949,7.81285 5.5211,0.150356 10.5345,-1.616985 15.0401,-5.302028 z" />
        <path
           inkscape:connector-curvature="0"
           id="path3114"
           style="font-style:normal;font-variant:normal;font-weight:bold;font-stretch:normal;font-family:Segoe Print;-inkscape-font-specification:Segoe Print Bold"
           d="m 1783.2237,-114.11288 c 7.453,0.40019 13.147,2.23824 17.0821,5.51416 0.412,14.597305 -1.4339,29.48451 -5.5378,44.661658 -4.5444,16.423939 -7.0388,28.772368 -7.4832,37.045322 -0.044,0.81969 -0.6023,3.910299 -1.6751,9.271837 -1.0727,5.361242 -3.6602,9.35194 -7.7624,11.9721054 -4.1021,2.6198458 -7.532,3.8558033 -10.2897,3.7078765 -2.9811,-0.1602613 -5.7728,-1.4126704 -8.3752,-3.757231 -2.6022,-2.3448801 -3.8333,-4.8215129 -3.6932,-7.4299059 0.1121,-2.086989 2.0366,-9.738414 5.7734,-22.954297 3.737,-13.216142 7.3982,-25.371105 10.9837,-36.464925 3.7587,-11.53318 5.9007,-20.798625 6.4259,-27.79636 0.4333,-5.28368 1.9505,-9.87376 4.5515,-13.77024 z m 18.6366,-50.57314 c 8.1983,0.44026 12.0533,5.20672 11.565,14.29938 -0.1841,3.42836 -2.0732,7.28839 -5.6672,11.5801 -3.594,4.29165 -7.3287,6.33343 -11.2043,6.12534 -2.534,-0.13612 -5.6355,-1.53597 -9.3045,-4.19955 -3.6689,-2.66364 -5.4573,-4.85254 -5.3653,-6.5667 l 1.4902,-6.87125 c 0.9349,-4.88296 3.5603,-8.53528 7.876,-10.95694 4.3158,-2.42168 7.8525,-3.55847 10.6101,-3.41038 z" />
      </g>
      <path
         style="fill:#00aa88;stroke:none"
         d="m 1158.5818,83.022638 42.0161,-202.584198 34.0033,196.834798 z"
         id="path2991-9"
         inkscape:connector-curvature="0"
         inkscape:export-filename="C:\Users\Desenvolv 7\Desktop\text3070-1.png"
         inkscape:export-xdpi="25.690001"
         inkscape:export-ydpi="25.690001" />
      <path
         style="fill:#d45500;stroke:none"
         d="M 657.52168,-64.254562 544.17767,-222.98056 577.13514,-67.641762 z"
         id="path2995-8"
         inkscape:connector-curvature="0"
         inkscape:export-filename="C:\Users\Desenvolv 7\Desktop\text3070-1.png"
         inkscape:export-xdpi="25.690001"
         inkscape:export-ydpi="25.690001" />
      <path
         style="fill:#00aa88"
         d="m 1266.5617,354.62604 -272.54565,-13.8569 c -29.34094,-1.4917 -55.09794,-30.2335 -56.88684,-57.8757 l -6.5501,-101.2168 c -1.7889,-27.6422 19.2074,-71.4724 48.21484,-76.1297 L 1247.6493,62.380238 c 29.0074,-4.6574 54.3599,18.8287 56.1488,46.470902 l 12.4544,192.4546 c 1.7889,27.6422 -20.3499,54.8121 -49.6908,53.3203 z"
         id="rect3026"
         inkscape:connector-curvature="0"
         sodipodi:nodetypes="sssssssss"
         inkscape:export-filename="C:\Users\Desenvolv 7\Desktop\text3070-1.png"
         inkscape:export-xdpi="25.690001"
         inkscape:export-ydpi="25.690001" />
      <path
         style="font-size:229.28590393px;font-style:normal;font-weight:normal;line-height:125%;letter-spacing:0px;word-spacing:0px;fill:#d45500;fill-opacity:1;stroke:none;font-family:Sans"
         d="m 567.56183,243.64884 364.60887,-58.1567 c 39.25195,-6.261 69.3721,-41.5803 67.40915,-71.9146 L 992.39175,2.5031381 C 990.42885,-27.831162 955.24141,-72.161962 915.46606,-72.638562 l -368.65835,-4.4205 c -39.77539,-0.4769 -70.18212,29.0647 -68.21916,59.399 l 13.6675,211.198002 c 1.96296,30.3343 36.05383,56.3719 75.30578,50.1109 z"
         id="rect3026-1"
         inkscape:connector-curvature="0"
         sodipodi:nodetypes="sssssssss"
         inkscape:export-filename="C:\Users\Desenvolv 7\Desktop\text3070-1.png"
         inkscape:export-xdpi="25.690001"
         inkscape:export-ydpi="25.690001" />
      <text
         xml:space="preserve"
         style="font-size:85px;font-style:normal;font-weight:normal;line-height:125%;letter-spacing:0px;word-spacing:0px;fill:#ffffff;fill-opacity:1;stroke:none;font-family:Sans"
         x="-1255.9152"
         y="-237.43987"
         id="text3070-2"
         sodipodi:linespacing="125%"
         transform="matrix(-0.99791262,0.0645787,-0.0645787,-0.99791262,0,0)"
         inkscape:export-filename="C:\Users\Desenvolv 7\Desktop\text3070-1.png"
         inkscape:export-xdpi="25.690001"
         inkscape:export-ydpi="25.690001"><tspan
           sodipodi:role="line"
           id="tspan3072-4"
           x="-1255.9152"
           y="-237.43987"
           style="font-size:200px;font-style:normal;font-variant:normal;font-weight:bold;font-stretch:normal;fill:#ffffff;font-family:Segoe UI;-inkscape-font-specification:Segoe UI Bold">um</tspan></text>
      <text
         xml:space="preserve"
         style="font-size:85px;font-style:normal;font-weight:normal;line-height:125%;letter-spacing:0px;word-spacing:0px;fill:#ffffff;fill-opacity:1;stroke:none;font-family:Sans"
         x="-976.68066"
         y="-85.852097"
         id="text3070-1-5"
         sodipodi:linespacing="125%"
         transform="matrix(-0.99791262,0.0645787,-0.0645787,-0.99791262,0,0)"
         inkscape:export-filename="C:\Users\Desenvolv 7\Desktop\text3070-1.png"
         inkscape:export-xdpi="25.690001"
         inkscape:export-ydpi="25.690001"><tspan
           sodipodi:role="line"
           id="tspan3072-7-5"
           x="-976.68066"
           y="-85.852097"
           style="font-size:200px;font-style:normal;font-variant:normal;font-weight:bold;font-stretch:normal;fill:#ffffff;font-family:Segoe UI;-inkscape-font-specification:Segoe UI Bold">papo</tspan></text>
      <g
         id="g3063"
         inkscape:export-xdpi="25.690001"
         inkscape:export-ydpi="25.690001">
        <path
           inkscape:export-ydpi="25.690001"
           inkscape:export-xdpi="25.690001"
           inkscape:export-filename="C:\Users\Desenvolv 7\Desktop\text3070-1.png"
           inkscape:connector-curvature="0"
           id="path2991-9-1"
           d="m 769.96627,821.83105 42.0161,-202.5842 34.0033,196.8348 z"
           style="font-size:229.28590393px;font-style:normal;font-weight:normal;line-height:125%;letter-spacing:0px;word-spacing:0px;fill:#00aa88;fill-opacity:1;stroke:none;font-family:Sans" />
        <path
           inkscape:export-ydpi="25.690001"
           inkscape:export-xdpi="25.690001"
           inkscape:export-filename="C:\Users\Desenvolv 7\Desktop\text3070-1.png"
           inkscape:connector-curvature="0"
           id="path2995-8-7"
           d="m 266.52286,668.69552 -113.344,-158.726 32.9575,155.3388 z"
           style="font-size:229.28590393px;font-style:normal;font-weight:normal;line-height:125%;letter-spacing:0px;word-spacing:0px;fill:#d45500;fill-opacity:1;stroke:none;font-family:Sans" />
        <path
           inkscape:export-ydpi="25.690001"
           inkscape:export-xdpi="25.690001"
           inkscape:export-filename="C:\Users\Desenvolv 7\Desktop\text3070-1.png"
           sodipodi:nodetypes="sssssssss"
           inkscape:connector-curvature="0"
           id="rect3026-4"
           d="m 877.94617,1093.4345 -272.5456,-13.8569 c -29.341,-1.4917 -55.098,-30.2335 -56.8869,-57.8757 l -6.5501,-101.21685 c -1.7889,-27.6422 19.2074,-71.4724 48.2149,-76.1297 l 268.8553,-43.1667 c 29.0074,-4.6574 54.3599,18.8287 56.1488,46.4709 l 12.4544,192.45465 c 1.7889,27.6422 -20.3499,54.8121 -49.6908,53.3203 z"
           style="font-size:229.28590393px;font-style:normal;font-weight:normal;line-height:125%;letter-spacing:0px;word-spacing:0px;fill:#00aa88;fill-opacity:1;stroke:none;font-family:Sans" />
        <path
           inkscape:export-ydpi="25.690001"
           inkscape:export-xdpi="25.690001"
           inkscape:export-filename="C:\Users\Desenvolv 7\Desktop\text3070-1.png"
           sodipodi:nodetypes="sssssssss"
           inkscape:connector-curvature="0"
           id="rect3026-1-0"
           d="m 154.51051,978.02602 383.05318,-59.3503 c 41.23762,-6.3895 72.98043,-41.81381 71.01737,-72.1481 l -8.36232,-129.21919 c -1.96306,-30.33429 -37.59436,-56.41525 -79.35965,-56.76341 l -387.10267,-3.2269 c -41.76538,-0.34816 -73.790253,29.29819 -71.827255,59.6325 l 13.667503,211.19799 c 1.962892,30.33431 37.676332,56.2669 78.913842,49.87741 z"
           style="font-size:229.28590393px;font-style:normal;font-weight:normal;line-height:125%;letter-spacing:0px;word-spacing:0px;fill:#d45500;fill-opacity:1;stroke:none;font-family:Sans" />
        <text
           transform="matrix(-0.99791262,0.0645787,-0.0645787,-0.99791262,0,0)"
           inkscape:export-ydpi="25.690001"
           inkscape:export-xdpi="25.690001"
           inkscape:export-filename="C:\Users\Desenvolv 7\Desktop\text3070-1.png"
           sodipodi:linespacing="125%"
           id="text3070-2-9"
           y="-950.34229"
           x="-834.07135"
           style="font-size:85px;font-style:normal;font-weight:normal;line-height:125%;letter-spacing:0px;word-spacing:0px;fill:#ffffff;fill-opacity:1;stroke:none;font-family:Sans"
           xml:space="preserve"><tspan
             style="font-size:200px;font-style:normal;font-variant:normal;font-weight:bold;font-stretch:normal;fill:#ffffff;font-family:Segoe Print;-inkscape-font-specification:Segoe Print Bold"
             y="-950.34229"
             x="-834.07135"
             id="tspan3072-4-4"
             sodipodi:role="line">um</tspan></text>
        <text
           transform="matrix(-0.99791262,0.0645787,-0.0645787,-0.99791262,0,0)"
           inkscape:export-ydpi="25.690001"
           inkscape:export-xdpi="25.690001"
           inkscape:export-filename="C:\Users\Desenvolv 7\Desktop\text3070-1.png"
           sodipodi:linespacing="125%"
           id="text3070-1-5-8"
           y="-804.24463"
           x="-524.3548"
           style="font-size:85px;font-style:normal;font-weight:normal;line-height:125%;letter-spacing:0px;word-spacing:0px;fill:#ffffff;fill-opacity:1;stroke:none;font-family:Sans"
           xml:space="preserve"><tspan
             style="font-size:200px;font-style:normal;font-variant:normal;font-weight:bold;font-stretch:normal;fill:#ffffff;font-family:Segoe Print;-inkscape-font-specification:Segoe Print Bold"
             y="-804.24463"
             x="-524.3548"
             id="tspan3072-7-5-8"
             sodipodi:role="line">papo</tspan></text>
      </g>
      <g
         id="g3861"
         transform="translate(677.69297,119.34173)">
        <path
           inkscape:export-ydpi="25.690001"
           inkscape:export-xdpi="25.690001"
           inkscape:export-filename="C:\Users\Desenvolv 7\Desktop\text3070-1.png"
           inkscape:connector-curvature="0"
           id="path2991-9-1-7"
           d="m -727.15033,1319.695 42.0161,-202.5842 34.0033,196.8348 z"
           style="font-size:229.28590393px;font-style:normal;font-weight:normal;line-height:125%;letter-spacing:0px;word-spacing:0px;fill:#00aa88;fill-opacity:1;stroke:none;font-family:Sans" />
        <path
           inkscape:export-ydpi="25.690001"
           inkscape:export-xdpi="25.690001"
           inkscape:export-filename="C:\Users\Desenvolv 7\Desktop\text3070-1.png"
           inkscape:connector-curvature="0"
           id="path2995-8-7-4"
           d="m -1230.5937,1166.5595 -113.344,-158.726 32.9575,155.3388 z"
           style="font-size:229.28590393px;font-style:normal;font-weight:normal;line-height:125%;letter-spacing:0px;word-spacing:0px;fill:#d45500;fill-opacity:1;stroke:none;font-family:Sans" />
        <path
           inkscape:export-ydpi="25.690001"
           inkscape:export-xdpi="25.690001"
           inkscape:export-filename="C:\Users\Desenvolv 7\Desktop\text3070-1.png"
           sodipodi:nodetypes="sssssssss"
           inkscape:connector-curvature="0"
           id="rect3026-4-0"
           d="m -619.17043,1591.2985 -272.5456,-13.8569 c -29.341,-1.4917 -55.098,-30.2335 -56.8869,-57.8757 l -6.5501,-101.2169 c -1.7889,-27.6422 19.2074,-71.4724 48.2149,-76.1297 l 268.8553,-43.1667 c 29.0074,-4.6574 54.3599,18.8287 56.1488,46.4709 l 12.4544,192.4547 c 1.7889,27.6422 -20.3499,54.8121 -49.6908,53.3203 z"
           style="font-size:229.28590393px;font-style:normal;font-weight:normal;line-height:125%;letter-spacing:0px;word-spacing:0px;fill:#00aa88;fill-opacity:1;stroke:none;font-family:Sans" />
        <path
           inkscape:export-ydpi="25.690001"
           inkscape:export-xdpi="25.690001"
           inkscape:export-filename="C:\Users\Desenvolv 7\Desktop\text3070-1.png"
           sodipodi:nodetypes="sssssssss"
           inkscape:connector-curvature="0"
           id="rect3026-1-0-9"
           d="m -1342.6061,1475.89 383.05319,-59.3503 c 41.23762,-6.3895 72.98043,-41.8138 71.01737,-72.1481 l -8.36232,-129.2192 c -1.96306,-30.3343 -37.59436,-56.4153 -79.35965,-56.7634 l -387.10269,-3.2269 c -41.7654,-0.3482 -73.7902,29.2982 -71.8272,59.6325 l 13.6675,211.198 c 1.9629,30.3343 37.6763,56.2669 78.9138,49.8774 z"
           style="font-size:229.28590393px;font-style:normal;font-weight:normal;line-height:125%;letter-spacing:0px;word-spacing:0px;fill:#d45500;fill-opacity:1;stroke:none;font-family:Sans" />
        <text
           transform="matrix(-0.99791262,0.0645787,-0.0645787,-0.99791262,0,0)"
           inkscape:export-ydpi="25.690001"
           inkscape:export-xdpi="25.690001"
           inkscape:export-filename="C:\Users\Desenvolv 7\Desktop\text3070-1.png"
           sodipodi:linespacing="125%"
           id="text3070-2-9-4"
           y="-1356.1995"
           x="714.92871"
           style="font-size:85px;font-style:normal;font-weight:normal;line-height:125%;letter-spacing:0px;word-spacing:0px;fill:#ffffff;fill-opacity:1;stroke:none;font-family:Sans"
           xml:space="preserve"><tspan
             style="font-size:200px;font-style:normal;font-variant:normal;font-weight:bold;font-stretch:normal;fill:#ffffff;font-family:Comic Sans MS;-inkscape-font-specification:Comic Sans MS Bold"
             y="-1356.1995"
             x="714.92871"
             id="tspan3072-4-4-8"
             sodipodi:role="line">um</tspan></text>
        <text
           transform="matrix(-0.99791262,0.0645787,-0.0645787,-0.99791262,0,0)"
           inkscape:export-ydpi="25.690001"
           inkscape:export-xdpi="25.690001"
           inkscape:export-filename="C:\Users\Desenvolv 7\Desktop\text3070-1.png"
           sodipodi:linespacing="125%"
           id="text3070-1-5-8-8"
           y="-1181.5304"
           x="1030.3595"
           style="font-size:85px;font-style:normal;font-weight:normal;line-height:125%;letter-spacing:0px;word-spacing:0px;fill:#ffffff;fill-opacity:1;stroke:none;font-family:Sans"
           xml:space="preserve"><tspan
             style="font-size:200px;font-style:normal;font-variant:normal;font-weight:bold;font-stretch:normal;fill:#ffffff;font-family:Comic Sans MS;-inkscape-font-specification:Comic Sans MS Bold"
             y="-1181.5304"
             x="1030.3595"
             id="tspan3072-7-5-8-2"
             sodipodi:role="line">papo</tspan></text>
      </g>
    </g>
    <g
       id="g3062"
       style="fill:#00aa88"
       transform="matrix(0.87381295,0,0,1,-72.220442,274.76149)"
       inkscape:export-filename="C:\Users\Desenvolv 7\Desktop\text3070-1.png"
       inkscape:export-xdpi="25.690001"
       inkscape:export-ydpi="25.690001">
      <path
         inkscape:connector-curvature="0"
         id="path2989"
         d="m 1926.95,-2359.1527 478.6559,25.4711 0,203.7687 -480.312,49.1229 z"
         style="fill:#00aa88;stroke:none" />
      <path
         inkscape:connector-curvature="0"
         id="path2991"
         d="m 2114.8361,-2102.7864 -62.9552,199.448 -24.2854,-198.6198 z"
         style="fill:#00aa88;stroke:none" />
    </g>
    <g
       id="g3066"
       transform="translate(-305.06607,264.74119)"
       inkscape:export-filename="C:\Users\Desenvolv 7\Desktop\text3070-1.png"
       inkscape:export-xdpi="25.690001"
       inkscape:export-ydpi="25.690001">
      <path
         inkscape:connector-curvature="0"
         id="path2993"
         d="m 2297.0345,-2166.9894 0,225.2245 541.551,68.3265 0,-354.2857 z"
         style="fill:#d45500;stroke:none" />
      <path
         inkscape:connector-curvature="0"
         id="path2995"
         d="m 2537.0345,-1916.2955 102.8571,165.7143 -22.8571,-157.1429 z"
         style="fill:#d45500;stroke:none" />
    </g>
    <text
       xml:space="preserve"
       style="font-size:85px;font-style:normal;font-weight:normal;line-height:125%;letter-spacing:0px;word-spacing:0px;fill:#ffffff;fill-opacity:1;stroke:none;font-family:Sans"
       x="1674.8329"
       y="-1899.3035"
       id="text3070"
       sodipodi:linespacing="125%"
       inkscape:export-xdpi="25.690001"
       inkscape:export-ydpi="25.690001"><tspan
         sodipodi:role="line"
         id="tspan3072"
         x="1674.8329"
         y="-1899.3035"
         style="font-size:200px;font-style:normal;font-variant:normal;font-weight:bold;font-stretch:normal;fill:#ffffff;font-family:Arial;-inkscape-font-specification:Arial Bold">um</tspan></text>
    <text
       xml:space="preserve"
       style="font-size:85px;font-style:normal;font-weight:normal;line-height:125%;letter-spacing:0px;word-spacing:0px;fill:#ffffff;fill-opacity:1;stroke:none;font-family:Sans"
       x="2034.3466"
       y="-1723.8052"
       id="text3070-1"
       sodipodi:linespacing="125%"
       inkscape:export-xdpi="25.690001"
       inkscape:export-ydpi="25.690001"><tspan
         sodipodi:role="line"
         id="tspan3072-7"
         x="2034.3466"
         y="-1723.8052"
         style="font-size:200px;font-style:normal;font-variant:normal;font-weight:bold;font-stretch:normal;fill:#ffffff;font-family:Arial;-inkscape-font-specification:Arial Bold">papo</tspan></text>
  </g>
</svg>
